<svg width="96" height="96" viewBox="0 0 96 96" fill="none" xmlns="http://www.w3.org/2000/svg">
<rect width="96" height="96" rx="8" fill="#091E33"/>
<path d="M84.1884 61.174C84.1884 63.8507 83.5557 66.138 82.2904 68.036C81.025 69.8853 79.127 71.2967 76.5964 72.27C74.0657 73.2433 70.9267 73.73 67.1794 73.73C64.4054 73.73 62.0207 73.5353 60.0254 73.146C58.03 72.8053 56.0347 72.2213 54.0394 71.394V62.415C56.1807 63.3883 58.4924 64.1913 60.9744 64.824C63.4564 65.4567 65.6464 65.773 67.5444 65.773C69.6857 65.773 71.1944 65.4567 72.0704 64.824C72.995 64.1913 73.4574 63.364 73.4574 62.342C73.4574 61.6607 73.2627 61.0523 72.8734 60.517C72.5327 59.9817 71.754 59.3733 70.5374 58.692C69.3207 58.0107 67.4227 57.1347 64.8434 56.064C62.3614 54.9933 60.3174 53.947 58.7114 52.925C57.1054 51.8543 55.913 50.589 55.1344 49.129C54.3557 47.6203 53.9664 45.7467 53.9664 43.508C53.9664 39.8093 55.402 37.0353 58.2734 35.186C61.1447 33.3367 64.965 32.412 69.7344 32.412C72.2164 32.412 74.5767 32.6553 76.8154 33.142C79.054 33.6287 81.3657 34.4317 83.7504 35.551L80.4654 43.362C79.1514 42.778 77.886 42.267 76.6694 41.829C75.4527 41.391 74.2604 41.0503 73.0924 40.807C71.973 40.5637 70.805 40.442 69.5884 40.442C67.9824 40.442 66.7657 40.661 65.9384 41.099C65.1597 41.537 64.7704 42.194 64.7704 43.07C64.7704 43.7027 64.965 44.2867 65.3544 44.822C65.7924 45.3087 66.5954 45.844 67.7634 46.428C68.98 47.012 70.7564 47.7907 73.0924 48.764C75.3797 49.6887 77.3507 50.662 79.0054 51.684C80.66 52.6573 81.9254 53.8983 82.8014 55.407C83.726 56.867 84.1884 58.7893 84.1884 61.174Z" fill="#4B9DD6"/>
<path d="M30.2465 20.878C36.9625 20.878 41.8535 22.338 44.9195 25.258C48.0342 28.1293 49.5915 32.0957 49.5915 37.157C49.5915 39.4443 49.2508 41.6343 48.5695 43.727C47.8882 45.771 46.7445 47.6203 45.1385 49.275C43.5812 50.881 41.5128 52.1463 38.9335 53.071C36.3542 53.9957 33.1665 54.458 29.3705 54.458H24.6255V73H13.6025V20.878H30.2465ZM29.6625 29.93H24.6255V45.406H28.2755C30.3682 45.406 32.1688 45.1383 33.6775 44.603C35.1862 44.0677 36.3542 43.216 37.1815 42.048C38.0088 40.88 38.4225 39.3713 38.4225 37.522C38.4225 34.9427 37.7168 33.0447 36.3055 31.828C34.8942 30.5627 32.6798 29.93 29.6625 29.93Z" fill="#4B9DD6"/>
</svg>
