<svg width="96" height="96" viewBox="0 0 96 96" fill="none" xmlns="http://www.w3.org/2000/svg">
<rect width="96" height="96" rx="8" fill="#430A35"/>
<path d="M68.7792 75C66.7013 75 64.7208 74.8139 62.8377 74.4416C60.9545 74.1159 59.2662 73.3946 57.7727 72.2779C56.2792 71.1611 55.1104 69.5092 54.2662 67.3221C53.4221 65.0886 53 62.1338 53 58.4577C53 53.6649 53.5844 49.8259 54.7532 46.9409C55.9221 44.0559 57.513 41.962 59.526 40.6591C61.539 39.3561 63.8117 38.7047 66.3442 38.7047C67.6429 38.7047 68.7792 38.821 69.7532 39.0537C70.7273 39.2864 71.5065 39.5888 72.0909 39.9611V26.4201C72.0909 25.2568 72.3507 24.4425 72.8701 23.9772C73.4545 23.5119 74.526 23.2327 76.0844 23.1396C77.7078 23.0465 80.013 23 83 23V72.906C81.3766 73.4179 79.3961 73.8832 77.0584 74.302C74.7208 74.7673 71.961 75 68.7792 75ZM68.8766 68.0899C69.526 68.0899 70.1104 68.0434 70.6299 67.9503C71.1494 67.8107 71.6364 67.6246 72.0909 67.3919V45.7544C71.8312 45.6148 71.5065 45.5217 71.1169 45.4752C70.7273 45.4286 70.3701 45.4054 70.0455 45.4054C69.5909 45.4054 69.0714 45.4984 68.487 45.6846C67.9675 45.8707 67.4481 46.3593 66.9286 47.1503C66.4091 47.8949 65.987 49.0814 65.6623 50.7101C65.4026 52.3387 65.2727 54.5955 65.2727 57.4805C65.2727 59.5745 65.3377 61.3195 65.4675 62.7154C65.5974 64.0649 65.7922 65.1351 66.052 65.9262C66.3766 66.7172 66.7662 67.2756 67.2208 67.6013C67.6753 67.9271 68.2273 68.0899 68.8766 68.0899Z" fill="#C76EAC"/>
<path d="M52.4484 74H39.6145L29.6785 55.37L19.8114 74H7.52945L22.9164 48.608L8.49545 24.734H20.8464L30.0235 42.467L38.9245 24.734H51.3445L36.7165 49.16L52.4484 74Z" fill="#C76EAC"/>
</svg>
