<svg width="95" height="96" viewBox="0 0 95 96" fill="none" xmlns="http://www.w3.org/2000/svg">
<rect width="95" height="96" rx="8" fill="#2D1210"/>
<path d="M78.0556 33.142V73H67.1786V33.142H78.0556ZM72.6536 17.52C74.2596 17.52 75.6466 17.9094 76.8146 18.688C77.9826 19.418 78.5666 20.805 78.5666 22.849C78.5666 24.8444 77.9826 26.2314 76.8146 27.01C75.6466 27.7887 74.2596 28.178 72.6536 28.178C70.9989 28.178 69.5876 27.7887 68.4196 27.01C67.3003 26.2314 66.7406 24.8444 66.7406 22.849C66.7406 20.805 67.3003 19.418 68.4196 18.688C69.5876 17.9094 70.9989 17.52 72.6536 17.52Z" fill="#F6951E"/>
<path d="M51.7442 73L47.9482 60.59H28.9682L25.1722 73H13.2732L31.6692 20.659H45.1742L63.6432 73H51.7442ZM41.5242 39.201C41.2809 38.3737 40.9646 37.3273 40.5752 36.062C40.1859 34.7967 39.7966 33.507 39.4072 32.193C39.0179 30.879 38.7016 29.7353 38.4582 28.762C38.2149 29.7353 37.8742 30.952 37.4362 32.412C37.0469 33.8233 36.6576 35.186 36.2682 36.5C35.9276 37.7653 35.6599 38.6657 35.4652 39.201L31.7422 51.319H45.3202L41.5242 39.201Z" fill="#F6951E"/>
</svg>
